{"title":"Symphony X Live in Rio de Janeiro 2011 DVD","uid":6732600,"size":4618349619,"categoryP":"video","categoryS":"music_videos","magnet":"?xt=urn:btih:593a12d978f6c258615cf35434d06177669fecff&amp;dn=Symphony+X+Live+in+Rio+de+Janeiro+2011+DVD&amp;tr=udp%3A%2F%2Ftracker.openbittorrent.com%3A80&amp;tr=udp%3A%2F%2Fopen.demonii.com%3A1337&amp;tr=udp%3A%2F%2Ftracker.coppersurfer.tk%3A6969&amp;tr=udp%3A%2F%2Fexodus.desync.com%3A6969","seeders":1,"leechers":2,"uploader":"thumbsplus","files":14,"time":1318215284,"description":"Postby Geophagus Ã‚Â» Sun Oct 09, 2011 10:40 pm\nDVD Bootleg Symphony X First Time In Rio\n2011-06-05\nVenue: Findicao Progresso\naudience shot\n\n\n\nThe dvd has a nice menu, every chapter is a song\nAs a bonus, the show of the band that opened the night: Scarlet Horizon\n\nthe fingerprints are included, I donÃ‚Â´t have a cover for it\n\n\nSet List:\nOculus Ex Inferni\nOf Sins and Shadows\nDomination\nSerpent's Kiss\nEnd of Innocence\nParadise Lost\nSmoke and Mirrors\nEve of Seduction\nDehumanized\nSet the World on Fire (The Lie of Lies)\n\nBis:\nThe Odyssey\n\n\ninformation about the first vob (no the show is not only 30 minutes long!):\n\nVideo\nID : 224 (0xE0)\nFormat : MPEG Video\nFormat version : Version 2\nFormat profile : Main@Main\nFormat settings, BVOP : Yes\nFormat settings, Matrix : Custom\nFormat settings, GOP : M=3, N=15\nDuration : 31mn 7s\nBit rate mode : Variable\nBit rate : 4 317 Kbps\nMaximum bit rate : 9 586 Kbps\nWidth : 720 pixels\nHeight : 576 pixels\nDisplay aspect ratio : 16:9\nFrame rate : 25.000 fps\nStandard : PAL\nColor space : YUV\nChroma subsampling : 4:2:0\nBit depth : 8 bits\nScan type : Progressive\nScan order : Top Field First\nCompression mode : Lossy\nBits/(Pixel*Frame) : 0.416\nStream size : 961 MiB (94%)\n\nAudio\nID : 189 (0xBD)-128 (0x80)\nFormat : AC-3\nFormat/Info : Audio Coding 3\nMode extension : CM (complete main)\nMuxing mode : DVD-Video\nDuration : 31mn 6s\nBit rate mode : Constant\nBit rate : 192 Kbps\nChannel(s) : 2 channels\nChannel positions : Front: L R\nSampling rate : 48.0 KHz\nBit depth : 16 bits\nCompression mode : Lossy\nDelay relative to video : -40ms\nStream size : 42.7 MiB (4%)","torrent":{"xt":"urn:btih:593a12d978f6c258615cf35434d06177669fecff","amp;dn":"Symphony+X+Live+in+Rio+de+Janeiro+2011+DVD","amp;tr":["udp%3A%2F%2Ftracker.openbittorrent.com%3A80","udp%3A%2F%2Fopen.demonii.com%3A1337","udp%3A%2F%2Ftracker.coppersurfer.tk%3A6969","udp%3A%2F%2Fexodus.desync.com%3A6969"],"infoHash":"593a12d978f6c258615cf35434d06177669fecff","infoHashBuffer":{"type":"Buffer","data":[89,58,18,217,120,246,194,88,97,92,243,84,52,208,97,119,102,159,236,255]},"announce":[],"urlList":[]}}